PathFileType	4	(X/Y/Z)	Patient4_TMGait_0pt7_02_left_15.trc.trc
DataRate	CameraRate	NumFrames	NumMarkers	Units	OrigDataRate	OrigDataStartFrame	OrigNumFrames
83.832335329341	83.832335329341	4	33	mm	83.832335329341	1	       141
Frame#	Time	Sacral			L.Shoulder			Chest			R.Shoulder			Neck			R.ASIS			L.ASIS			R.Thigh.Superior			R.Thigh.Lateral			R.Thigh.Inferior			R.Patella			L.Thigh.Superior			L.Thigh.Lateral			L.Thigh.Inferior			L.Patella			L.Shank.Superior			L.Shank.Lateral			L.Shank.Inferior			R.Shank.Superior			R.Shank.Lateral			R.Shank.Inferior			R.Heel			R.Midfoot.Superior			R.Midfoot.Lateral			R.Toe			L.Heel			L.Midfoot.Lateral			L.Midfoot.Superior			L.Toe			L.Elbow			L.Wrist			R.Elbow			R.Wrist			
		X1	Y1	Z1	X2	Y2	Z2	X3	Y3	Z3	X4	Y4	Z4	X5	Y5	Z5	X6	Y6	Z6	X7	Y7	Z7	X8	Y8	Z8	X9	Y9	Z9	X10	Y10	Z10	X11	Y11	Z11	X12	Y12	Z12	X13	Y13	Z13	X14	Y14	Z14	X15	Y15	Z15	X16	Y16	Z16	X17	Y17	Z17	X18	Y18	Z18	X19	Y19	Z19	X20	Y20	Z20	X21	Y21	Z21	X22	Y22	Z22	X23	Y23	Z23	X24	Y24	Z24	X25	Y25	Z25	X26	Y26	Z26	X27	Y27	Z27	X28	Y28	Z28	X29	Y29	Z29	X30	Y30	Z30	X31	Y31	Z31	X32	Y32	Z32	X33	Y33	Z33	

1	16.840000000000	784.456402286625	1008.682285473061	530.785732410135	957.949706195438	1438.522127797176	345.857941530673	1072.116272121702	1362.147148179580	497.887675244392	1002.743949741143	1437.728508361846	677.193516466113	972.456233974287	1495.451116820962	500.436941804512	1014.359724024047	945.545148385584	642.600374034095	991.773653100756	963.856602425121	369.060117362010	1051.772496722719	744.712021273502	619.425499538136	966.529422612865	635.498794909946	673.712656545986	1050.071729927556	583.709092206969	599.760902341291	1048.766679702835	494.846346127200	606.028191202250	1085.464952059948	796.683155211362	389.668677802965	1050.589257151223	669.499792356253	305.245850661738	1163.952184783134	615.604217374591	360.195076850061	1185.056584235012	525.992742008343	348.737245026357	1120.894952297660	453.820852019132	345.275737708890	978.405214992686	405.432954710583	305.153521888930	975.750259601332	275.843384289609	360.245801620645	1019.508890769267	406.494918554317	608.574519568050	941.404497923581	301.918572082381	661.071289162719	991.771178259076	208.208140316735	600.125912192914	861.968058138441	42.761541696596	554.040547854553	1030.966121458987	98.406855202687	602.947748033262	940.798719828639	36.535349769580	633.708129808107	1148.721929879175	47.316408299057	636.474080374345	791.595347137001	195.251924202398	409.300728263362	847.349351658217	159.707328246168	322.794420382594	952.662086580251	177.428231475548	337.933252272897	1038.831856473923	76.508016755147	297.475823300343	898.215414137154	1092.639502277129	233.517562190672	1090.913397330008	916.964492283604	250.619988076197	976.750961649171	1085.931038254972	794.779178945166	1071.610619456803	841.105057873041	772.380669327794	
2	16.851928571429	783.181161598537	1009.264941088385	532.503206037513	955.478978961095	1438.483369936606	346.605914935887	1071.102076745053	1362.132962171924	497.483014899895	1003.736121903538	1437.827151331324	677.545141162323	971.675223983860	1495.652194245810	501.153434584286	1013.160591617774	945.490695492656	642.544495788900	989.429173681467	964.305024661352	369.187292448218	1047.841600028221	743.963778342539	618.584774211182	961.775494420519	635.619319514398	673.926498213229	1043.565841538858	582.918548793033	599.216175424764	1041.104046415233	494.454864837845	605.398911504938	1084.428930798478	800.671496366241	390.503401162898	1053.171218894497	673.423440805103	304.820819353512	1167.158172891579	621.817494538570	360.319770214131	1190.786954334639	533.330379442788	348.230331206586	1129.879587559604	459.448554510167	344.154835888828	990.322104252224	404.285869996819	303.930406570826	994.699271300875	274.654781180449	357.905640938564	1011.782010359003	406.290516207713	608.328846787004	933.705011161993	301.870267363606	661.084610952305	983.432154127006	208.071650946369	599.984326984691	853.134077909624	42.802703975747	554.030880760767	1022.192648299368	98.306088779739	602.884371086996	931.916004064492	36.484375976141	633.704132986224	1139.905961457456	47.074952435051	636.477245970820	815.899568303046	185.015924596667	407.043204656955	872.647593006513	152.595596602436	320.132243289401	976.681855295346	175.256636575811	334.990678658795	1067.212350912758	79.027800752491	293.714238836906	891.096348371287	1092.101604730340	237.928011231861	1062.775616330768	900.427988692746	250.686523475504	989.965676069460	1086.118896853642	795.894348338227	1099.671439533249	849.987122614852	769.309248373636	
3	16.863857142857	781.905102981762	1009.823863221781	534.156926730176	953.062517435974	1438.403499114304	347.309198504952	1070.104611364093	1362.086726828911	497.063080068049	1004.710673978059	1437.905320856208	677.858759455067	970.906647904949	1495.820249696094	501.818510760383	1011.993621929440	945.429266742076	642.493232948851	987.110117441548	964.700857236205	369.313006502974	1043.967125212493	743.214517641055	617.753457892377	957.071043750878	635.725093696507	674.126726575843	1037.127121536998	582.126253620866	598.677780252472	1033.521015832770	494.069265281225	604.772406523718	1083.350993292871	804.506565589693	391.345191906416	1055.647536497000	677.225713980523	304.434140067470	1170.196790851637	627.844036500226	360.505685660550	1196.303327016034	540.494068915183	347.792219603266	1138.645766762634	464.949904094221	343.090494038302	1002.107825278115	403.079881995942	302.683699015718	1013.454329746097	273.482293130923	355.567943295429	1004.134556986890	406.078966262985	608.069907112855	926.099501724098	301.813724338997	661.099145101765	975.193024094111	207.931633975640	599.828839107758	844.400093448769	42.840427831916	554.026870894674	1013.511663874499	98.201973275843	602.814962178026	923.134762059221	36.435450917170	633.695847152167	1131.184817432377	46.835860447935	636.480726336817	840.032798496667	174.913924205533	404.691143980081	897.792445766529	145.599801682341	317.410070597566	1000.516962085243	173.140052763436	332.057242936280	1095.351668422571	81.597249824791	290.023099921701	884.127282472482	1091.543944525455	242.207105068672	1034.724558401024	884.573410085241	250.754527867449	1002.980770341034	1086.383766357902	796.978661476133	1127.361371287430	859.099228310653	766.157420296032	
4	16.875785714286	780.635412014626	1010.329297962198	535.683646262436	950.756706385788	1438.242882309326	347.915497552984	1069.140652127007	1361.972436359040	496.604920905156	1005.648420818888	1437.938014247293	678.088979377960	970.167229558937	1495.919012698570	502.375263010899	1010.885548679789	945.351696124315	642.447401375308	984.853939986684	964.988531176284	369.425345625435	1040.179877408581	742.452823853538	616.952569719906	952.423147887293	635.804337806459	674.305425043312	1030.773843986332	581.325121071108	598.158645878412	1026.042240478021	493.689829791921	604.156444469527	1082.193292123819	808.017074131507	392.191220805116	1057.890222620498	680.750069856570	304.113877193442	1172.887674639461	633.456022598681	360.792896547105	1201.375146264607	547.283954703541	347.493320657531	1146.976892747130	470.182676911581	342.147927653421	1013.689120868400	401.727498254395	301.373978780233	1031.892507325958	272.332472163233	353.241765721680	996.585974700487	405.854287194962	607.790056620159	918.611790936014	301.744622231458	661.120180782240	967.078588577885	207.785809920741	599.652228842136	835.790489061326	42.871670148919	554.033349128787	1004.941100479573	98.091505143567	602.734467837793	914.479939665397	36.391319866050	633.682593466492	1122.579982737424	46.602216630698	636.484668431239	863.944704335219	165.041192532226	402.124380943312	922.778600964957	138.816444855663	314.575108333516	1024.093483322522	171.140169958749	329.164523458394	1123.136113489938	84.313763418091	286.557825222954	877.355894426356	1090.997435514098	246.205881751172	1006.789868062004	870.088775959218	250.823616483840	1015.672492839616	1086.822337296214	797.972503499896	1154.386866480997	868.853192193057	762.784859192139	
